/* XPM */
static char *ppicon[] = {
/* columns rows colors chars-per-pixel */
"32 32 79 1",
"  c #1F1B1C",
". c #201D1E",
"X c #221F20",
"o c #262324",
"O c #282526",
"+ c #292628",
"@ c #2B2829",
"# c #302D2E",
"$ c #312F30",
"% c #343233",
"& c #383536",
"* c #393738",
"= c #3C3B3C",
"- c #403F40",
"; c #444345",
": c #484648",
"> c #4B4B4C",
", c #4E4E50",
"< c #4F5052",
"1 c #504F51",
"2 c #525254",
"3 c #575759",
"4 c #56585A",
"5 c #5A5B5D",
"6 c #5E5E60",
"7 c #626264",
"8 c #666669",
"9 c #67686A",
"0 c #6A6B6D",
"q c #6C6D70",
"w c #6F7072",
"e c #727274",
"r c #757678",
"t c #77787B",
"y c #7A7B7D",
"u c #7E7E81",
"i c #828385",
"p c #858688",
"a c #86888B",
"s c #898A8D",
"d c #8D8E90",
"f c #8F9093",
"g c #919295",
"h c #959698",
"j c #96989A",
"k c #999A9C",
"l c #9C9EA0",
"z c #9EA0A2",
"x c #A1A2A4",
"c c #A5A6A8",
"v c #A7A8AA",
"b c #AAACAD",
"n c #ADAFB1",
"m c #AFB0B2",
"M c #B1B2B4",
"N c #B5B6B9",
"B c #B6B8BB",
"V c #B9BABD",
"C c #BDBEC0",
"Z c #BFC0C2",
"A c #C1C2C4",
"S c #C5C6C8",
"D c #C6C8CA",
"F c #C9CACC",
"G c #CDCED0",
"H c #CFD0D1",
"J c #D3D4D5",
"K c #D5D6D8",
"L c #D6D8D8",
"P c #D8D9DA",
"I c #DEDFE0",
"U c #E1E2E4",
"Y c #E6E7E8",
"T c #E7E8E9",
"R c #EAEBEC",
"E c #EFF0F1",
"W c #F4F5F5",
"Q c #FEFEFE",
"! c None",
/* pixels */
"!!!!!!!!!!!!!!!!!!!!!!!!!!!!!!!!",
"!!!!!!!!!!!!!!!!!!!!!!!!!!!!!!!!",
"!!!!!!!!!!!!!!!!!!!!!!!!!!!!!!!!",
"@+OOOOOoooXoXoooOoooOooooOOooO!!",
"-AFSAZVVNNNmmbbvcxxzkkkhffddp%oo",
":WQQQQWWERTYUIPKJFFDSZVNBmnbz&.o",
":RWSbbbbvcxxzzlkkkhhggffdafck&oo",
":RWjVZCZCCACAAAZZZZZZAZAAAskh&.o",
";YEzPILPPLPPLPPLKPPPPPPPPPgkk&XO",
":YRzNFPKJJJJJJJJJJJJJKKJJJaff&Xo",
"-URxCzbHLJJJKJJKJKKHFAZVZC7tw+oo",
"#JTxJmpAPLKJJJJKKGZVVBBVVC7wq+oO",
"$JIpvmLJFDHKJJLHZBVVVVVVVZ7q0@OO",
"$FPeBFHSbbFPLLFCNVVVVVVVVV7q9+oo",
"$FPrNBBZFGGGFAVBVVVVVVVVVV798+oo",
"$FKrBVVBBBBBBBVVVVBVVVVVVZ797+oo",
"$SJeNVVVVVVVVVVBVVVVVVBVVV777+oo",
"$AGeNVVVVVVVVVVVVVVVVVVVCZ676+oo",
"$ZFeBCVVVVBVVVVVVVBVVVVVVC665@oo",
"$CSeNVVVBVVVVVVVVVVVVVVVVC654+oo",
"$CAeNCVBVVVVVVVVVVVVVVVVBC742+o+",
"$NCeNCVVVVVVVVVVVVVBVVVVVC62<@oo",
"$NCeCZZZZCCCZZZZZZZZZZZZZS6<,+oo",
"#mC8hjjjjjjlhkkkkkkkkkkkll2,>+oo",
"#nCliiiuytrww00887654422,:,1:+oo",
"$mCVBMmvvzlkhgsaiuyre097644,:+oo",
"+111>>>>>:::;;;--=====**&%%$#ooo",
"!X.....X....X. o.oo.o..ooXoXo+oo",
"!!ooXoooOooooOooOooOooOoOooOooo!",
"!!!!!!!!!!!!!!!!!!!!!!!!!!!!!!!!",
"!!!!!!!!!!!!!!!!!!!!!!!!!!!!!!!!",
"!!!!!!!!!!!!!!!!!!!!!!!!!!!!!!!!"
};
